<svg width="116" height="48" viewBox="0 0 116 48" fill="none" xmlns="http://www.w3.org/2000/svg">
<path d="M13.3635 6.71223C12.3122 7.73613 11.7156 9.13925 11.7156 11.0733V12.3247H22.806V18.0699H11.9807V47.3364H5.51209L5.3795 18.0699H0.274658V12.3247H5.3795V11.0733C5.3795 11.0733 4.36611 0.161167 16.5552 0.123245C19.4817 0.113764 20.7414 0.445583 23.3269 1.03338V6.05807C23.3269 6.05807 16.2521 3.91547 13.3635 6.72171V6.71223Z" fill="black"/>
<path d="M29.7956 17.027C33.2715 13.5002 37.4955 11.7368 42.4678 11.7368C46.8717 11.7368 50.7264 13.2063 54.0507 16.1263C57.375 19.0558 59.3639 22.6774 60.0269 26.991C60.2447 28.0434 60.3584 29.0388 60.3584 29.9679C60.3584 30.7643 60.2731 31.5133 60.0932 32.2148H31.0553C31.453 35.1633 32.7127 37.5334 34.8531 39.3158C36.9841 41.0981 39.5318 41.9893 42.4772 41.9893C44.504 41.9893 46.4455 41.5342 48.3208 40.6335C50.1866 39.7329 51.7209 38.5099 52.9047 36.9646L58.7767 38.4815C57.3656 41.2972 55.1493 43.5725 52.1092 45.2885C49.069 47.0045 45.8583 47.8672 42.4772 47.8672C37.4197 47.8672 33.1578 46.1038 29.7104 42.5771C26.2535 39.0503 24.5298 34.803 24.5298 29.8257C24.5298 24.8484 26.2914 20.5348 29.8146 17.008L29.7956 17.027ZM31.0458 27.1332H53.6151C53.1794 24.4502 51.9198 22.1939 49.8551 20.3641C47.7904 18.5344 45.2996 17.6242 42.4015 17.6242C39.5033 17.6242 36.9272 18.5344 34.8152 20.3641C32.7032 22.1939 31.453 24.4502 31.0553 27.1332H31.0458Z" fill="black"/>
<path d="M84.7081 16.7237C88.0987 13.2443 92.2091 11.4999 97.0487 11.4999C102.201 11.4999 106.226 13.5477 109.124 17.6433V1.12817H115.725V47.1089H109.124V41.6291C106.217 45.6394 102.191 47.6398 97.0487 47.6398C92.2091 47.6398 88.0798 45.8669 84.6702 42.3212C81.2607 38.7755 79.5559 34.5376 79.5559 29.5983C79.5559 24.6589 81.2702 20.241 84.7081 16.7142V16.7237ZM89.1973 38.1308C91.4893 40.463 94.3022 41.6291 97.6454 41.6291C100.989 41.6291 103.697 40.444 106.027 38.0644C108.357 35.6848 109.522 32.8691 109.522 29.6078C109.522 26.3464 108.367 23.4644 106.056 21.0847C103.745 18.7051 100.941 17.5201 97.6359 17.5201C94.3306 17.5201 91.5272 18.7051 89.2163 21.0847C86.9054 23.4644 85.7499 26.3085 85.7499 29.6078C85.7499 32.907 86.8959 35.7986 89.1784 38.1308H89.1973Z" fill="black"/>
<path d="M73.2199 1.12817H66.6187V47.3743H73.2199V1.12817Z" fill="black"/>
<path d="M48.9364 1.11865H35.8665V6.314H48.9364V1.11865Z" fill="black"/>
</svg>
