<svg width="116" height="39" viewBox="0 0 116 39" fill="none" xmlns="http://www.w3.org/2000/svg">
<g clip-path="url(#clip0_110_288)">
<path d="M14.7638 32.0804C14.6518 32.0812 14.6104 31.9941 14.5636 31.9197C14.2373 31.3999 13.9132 30.879 13.5877 30.3588C12.7394 29.004 11.8907 27.6496 11.0427 26.2952C10.0083 24.6429 8.9742 22.9899 7.93936 21.3376C7.08421 19.9724 6.22679 18.6092 5.37202 17.2436C4.35085 15.6125 3.33235 13.9799 2.31043 12.3492C1.58406 11.1898 0.854283 10.0327 0.12602 8.87478C0.108925 8.84781 0.0903102 8.82161 0.0739746 8.79425C-0.0407543 8.60544 -0.0339162 8.57462 0.179206 8.53339C1.39108 8.29718 2.60409 8.0656 3.81672 7.83325C4.58791 7.68568 5.36024 7.54388 6.13029 7.38936C6.29935 7.35546 6.39584 7.39668 6.48815 7.54696C7.38243 9.00078 8.28469 10.4492 9.18238 11.9011C10.3156 13.7341 11.4466 15.5682 12.5783 17.402C12.8974 17.9187 13.2154 18.4362 13.5356 18.9521C13.5744 19.0145 13.6051 19.112 13.6952 19.0924C13.7841 19.0731 13.7731 18.9687 13.7875 18.8982C14.1438 17.1569 14.4964 15.4152 14.852 13.674C15.0765 12.5739 15.3048 11.4745 15.5305 10.3745C15.7595 9.25586 15.9909 8.13805 16.2116 7.01791C16.2439 6.85454 16.318 6.79597 16.4699 6.77169C16.8138 6.71659 17.156 6.65147 17.4964 6.57711C17.6579 6.54166 17.7529 6.58905 17.8418 6.72854C18.7117 8.09181 19.5859 9.45199 20.4611 10.8114C21.2745 12.0741 22.092 13.3341 22.905 14.5972C23.4483 15.4411 23.9858 16.2888 24.5283 17.133C24.564 17.1889 24.5872 17.2871 24.6655 17.2744C24.7597 17.259 24.7388 17.1511 24.7521 17.081C25.0818 15.3216 25.4074 13.5615 25.7372 11.8021C26.1429 9.63926 26.552 7.47683 26.9593 5.31402C27.0698 4.72794 27.1819 4.14187 27.2856 3.55425C27.3145 3.39088 27.3927 3.31805 27.5531 3.28799C29.1277 2.99284 30.7013 2.69152 32.2752 2.39212C32.5612 2.33779 32.8469 2.28115 33.1334 2.22913C33.3685 2.18636 33.3898 2.20524 33.3431 2.45146C33.0988 3.73073 32.8503 5.00884 32.6045 6.28773C32.1597 8.60005 31.7175 10.9127 31.2715 13.2247C30.8061 15.6376 30.3358 18.0493 29.8708 20.4622C29.4506 22.642 29.0339 24.8225 28.6156 27.0026C28.4644 27.7902 28.3121 28.5771 28.1628 29.3651C28.1438 29.4664 28.0975 29.5219 27.9941 29.5415C27.5151 29.6321 27.0368 29.7257 26.5589 29.8228C26.4441 29.8459 26.3826 29.7924 26.3256 29.7045C26.0019 29.2063 25.6756 28.7096 25.3508 28.2118C24.7221 27.2485 24.093 26.2856 23.4646 25.3219C22.7139 24.1709 21.964 23.0196 21.2133 21.8686C20.5816 20.8999 19.9498 19.9312 19.3165 18.9637C19.2873 18.919 19.2683 18.8435 19.1976 18.8573C19.1296 18.8708 19.1334 18.9459 19.122 18.9995C18.945 19.8276 18.7698 20.656 18.5924 21.4841C18.3934 22.4123 18.1913 23.3402 17.993 24.2688C17.5557 26.3137 17.1203 28.3594 16.6838 30.4043C16.598 30.8058 16.5095 31.2065 16.4236 31.608C16.4065 31.6874 16.3814 31.7598 16.2925 31.7779C15.7835 31.8797 15.2744 31.9799 14.765 32.0808L14.7638 32.0804Z" fill="#1D1D1B"/>
<path d="M64.1228 12.1253C64.565 12.2979 65.0122 12.4312 65.4502 12.5942C67.0104 13.176 68.1585 14.2014 68.7803 15.7843C69.1675 16.7695 69.2431 17.8026 69.177 18.8514C69.128 19.6271 68.9654 20.3758 68.6478 21.0855C68.1258 22.2523 67.2714 23.1023 66.1803 23.7196C64.8807 24.4552 63.4652 24.8378 62.0132 25.1018C60.8162 25.3195 59.6081 25.4378 58.3932 25.4909C55.9577 25.5977 53.5207 25.548 51.084 25.5641C50.6471 25.5672 50.2102 25.5653 49.7737 25.5653C49.507 25.5653 49.507 25.5634 49.504 25.3017C49.4466 20.4478 49.4983 15.5935 49.4603 10.74C49.4333 7.26635 49.4478 3.79305 49.4318 0.319757C49.4303 0.0111141 49.4318 0.00957287 49.7323 0.00957287C52.2267 0.00957287 54.7211 -0.0173997 57.2151 0.0192059C59.1336 0.0473344 61.0457 0.203775 62.9125 0.703153C64.0457 1.0064 65.1307 1.42486 66.0705 2.16121C67.3014 3.12529 67.9358 4.40687 68.065 5.96858C68.1341 6.8028 68.0859 7.62277 67.8637 8.42925C67.562 9.52279 66.9105 10.3713 66.0493 11.071C65.5155 11.5049 64.9236 11.832 64.2797 12.0636C64.2269 12.0825 64.1749 12.1048 64.1224 12.1253H64.1228ZM55.2518 17.3911H55.2575C55.2575 18.2638 55.2579 19.137 55.2568 20.0097C55.2568 20.133 55.2549 20.2363 55.4293 20.2355C56.871 20.2294 58.3142 20.2594 59.7494 20.0806C60.4545 19.9928 61.1494 19.8575 61.799 19.5466C62.2036 19.3527 62.5603 19.0919 62.754 18.675C63.083 17.9667 63.1233 17.225 62.8851 16.4809C62.65 15.7465 62.0961 15.3462 61.4069 15.1007C60.3485 14.7239 59.2457 14.6279 58.1383 14.5917C57.2596 14.5632 56.3794 14.5886 55.4999 14.5794C55.3111 14.5774 55.2461 14.6333 55.248 14.8302C55.2572 15.6837 55.2518 16.5376 55.2518 17.3911ZM55.2196 7.81504H55.2222C55.2222 8.49552 55.229 9.176 55.218 9.85648C55.215 10.0545 55.2784 10.1054 55.4676 10.1042C56.5811 10.0977 57.695 10.1127 58.8062 10.0237C59.4189 9.97478 60.0271 9.88962 60.6114 9.68386C61.7595 9.27965 62.2739 8.03391 61.7644 6.908C61.4928 6.30766 60.9925 6.01251 60.3979 5.84219C59.6058 5.61524 58.7902 5.56091 57.9746 5.53856C57.1335 5.51506 56.2909 5.53702 55.4494 5.52739C55.2613 5.52546 55.2138 5.59405 55.2161 5.77322C55.2241 6.4537 55.2196 7.13418 55.2196 7.81466V7.81504Z" fill="#1D1D1B"/>
<path d="M103.688 36.2037C102.437 36.2106 101.108 35.9952 99.8104 35.5637C98.7687 35.2173 97.8015 34.7268 96.8916 34.1068C95.8568 33.402 94.9644 32.5451 94.2039 31.5509C93.672 30.8558 93.2321 30.0986 92.8697 29.2949C92.5498 28.5859 92.3033 27.8526 92.1099 27.1008C91.8907 26.2485 91.7684 25.3815 91.7102 24.5003C91.6434 23.4819 91.7156 22.4724 91.8432 21.4674C92.0419 19.9073 92.432 18.396 93.0722 16.9557C93.6998 15.5423 94.5503 14.2808 95.6091 13.1707C96.4229 12.3172 97.3635 11.6213 98.3964 11.0587C99.5331 10.4399 100.744 10.0342 102.012 9.81953C102.97 9.65769 103.938 9.63534 104.907 9.71279C106.236 9.81876 107.519 10.1205 108.746 10.646C109.582 11.004 110.367 11.4533 111.102 12.0001C111.665 12.4197 112.197 12.8713 112.673 13.3884C113.364 14.1421 113.971 14.9586 114.454 15.8699C115.016 16.9295 115.412 18.0492 115.673 19.2187C115.825 19.9015 115.905 20.5962 115.963 21.2948C116.051 22.3575 115.973 23.4141 115.831 24.4618C115.639 25.889 115.3 27.2819 114.736 28.614C114.233 29.8019 113.581 30.892 112.779 31.8962C111.714 33.2302 110.415 34.2694 108.901 35.0173C107.582 35.6685 106.184 36.0654 104.713 36.1694C104.409 36.191 104.106 36.1979 103.688 36.2037ZM97.9842 24.0429C97.9664 24.8845 98.0667 25.7098 98.3041 26.5155C98.6589 27.7177 99.2975 28.7288 100.291 29.4933C100.879 29.9464 101.539 30.2412 102.259 30.4088C102.964 30.5734 103.678 30.6219 104.387 30.4978C105.871 30.2381 107.022 29.4201 107.912 28.2125C108.436 27.5016 108.802 26.7016 109.06 25.8578C109.478 24.4887 109.702 23.0923 109.623 21.6481C109.563 20.5546 109.337 19.515 108.833 18.5436C108.422 17.7506 107.852 17.094 107.118 16.5973C106.397 16.1095 105.604 15.8275 104.735 15.7165C103.693 15.5836 102.715 15.7597 101.786 16.2217C100.42 16.9017 99.5304 18.0435 98.9218 19.4183C98.2726 20.8848 98.0097 22.4415 97.9839 24.0422L97.9842 24.0429Z" fill="#1D1D1B"/>
<path d="M90.2548 20.1365C90.2316 21.7256 89.8745 23.2391 89.2462 24.6891C88.8477 25.6081 88.3147 26.4389 87.6012 27.1421C86.6739 28.0564 85.5779 28.6729 84.3387 29.0348C83.89 29.1658 83.9542 29.1107 84.0667 29.5114C84.9252 32.5739 85.7887 35.6349 86.6488 38.6971C86.6743 38.7873 86.7537 38.8994 86.6944 38.9684C86.6275 39.0462 86.5181 38.956 86.4326 38.9306C84.4093 38.3326 82.3875 37.7299 80.3646 37.1308C80.243 37.0949 80.1761 37.0321 80.1404 36.9042C79.487 34.5699 78.8298 32.2368 78.1726 29.9033C78.1099 29.681 78.0411 29.4605 77.9837 29.2371C77.9564 29.1299 77.899 29.0764 77.7934 29.0533C76.8148 28.8398 75.8559 28.5508 74.8994 28.2553C74.7459 28.2079 74.6817 28.2533 74.6391 28.4021C74.0435 30.4724 73.4436 32.542 72.8456 34.6119C72.7723 34.8655 72.7708 34.8689 72.5185 34.7938C70.7087 34.2551 68.9 33.7133 67.0887 33.1808C66.9014 33.1257 66.871 33.0475 66.9238 32.8664C67.6316 30.4412 68.3332 28.0144 69.0353 25.5877C69.6948 23.3085 70.352 21.0289 71.0115 18.7501C71.6315 16.6066 72.2534 14.4634 72.8738 12.3203C73.2126 11.15 73.5541 9.98058 73.885 8.80805C73.934 8.63388 73.9982 8.60575 74.1646 8.65623C76.0751 9.23306 77.9936 9.78446 79.8988 10.3786C82.1926 11.0938 84.4219 11.9673 86.4194 13.3541C87.4675 14.082 88.391 14.9416 89.0859 16.0332C89.881 17.2821 90.2654 18.6503 90.2544 20.1365H90.2548ZM80.7669 23.989C81.2034 24.0052 81.8659 23.8826 82.465 23.4946C83.3304 22.9336 83.7437 22.0812 83.9523 21.1037C84.1556 20.1523 84.0097 19.2634 83.4261 18.4739C82.9486 17.8277 82.2773 17.4385 81.5776 17.0971C80.575 16.6077 79.5049 16.3137 78.4423 15.997C78.2725 15.9465 78.2223 15.9993 78.1805 16.1523C78.0403 16.6655 77.8892 17.1757 77.7414 17.6866C77.2426 19.411 76.7453 21.1353 76.2423 22.8581C76.1956 23.0176 76.2286 23.09 76.3908 23.1328C76.7213 23.2203 77.0462 23.3289 77.3748 23.4237C78.399 23.7189 79.4304 23.9743 80.7665 23.989H80.7669Z" fill="#1D1D1B"/>
<path d="M28.1641 37.1651C28.1846 37.1651 28.1656 37.1647 28.1466 37.1651C27.7405 37.1751 27.7375 37.1728 27.8792 36.7863C28.1702 35.9925 28.4304 35.188 28.7119 34.3911C28.9786 33.6363 29.2502 32.883 29.5158 32.1281C29.7984 31.3247 30.072 30.5183 30.3538 29.7145C30.8435 28.3185 31.3385 26.924 31.8278 25.5276C32.226 24.3913 32.6169 23.2519 33.015 22.1155C33.4238 20.9488 33.8394 19.784 34.2485 18.6172C34.7641 17.148 35.275 15.6772 35.7898 14.2076C36.1666 13.1318 36.545 12.0563 36.9261 10.982C37.07 10.5763 37.075 10.5863 37.4989 10.5632C38.0293 10.5339 38.5596 10.4938 39.0888 10.4476C39.2723 10.4314 39.381 10.4961 39.4668 10.6599C40.4169 12.4736 41.3705 14.2858 42.3259 16.0964C42.9679 17.3133 43.6157 18.5266 44.2577 19.7431C44.8701 20.9029 45.4775 22.0654 46.0892 23.2257C46.6324 24.2556 47.1799 25.2837 47.7235 26.3136C48.3237 27.4507 48.9205 28.5897 49.5212 29.7264C50.107 30.8354 50.6969 31.9416 51.2827 33.0506C51.6592 33.7634 52.0338 34.4771 52.4038 35.1934C52.4973 35.3745 52.473 35.4103 52.2674 35.425C51.138 35.5063 50.0086 35.5845 48.8791 35.6646C47.9898 35.7278 47.0997 35.7875 46.2111 35.8596C46.0018 35.8766 45.8962 35.8003 45.8031 35.6118C45.3746 34.7456 44.9259 33.8902 44.4947 33.0256C44.4051 32.846 44.2987 32.8001 44.1042 32.8209C43.6328 32.8714 43.1583 32.8903 42.6849 32.9242C41.663 32.9978 40.6411 33.0741 39.6188 33.1473C38.6724 33.2151 37.7257 33.2806 36.779 33.3481C36.2426 33.3862 35.707 33.4309 35.1702 33.4629C35.0137 33.4721 34.954 33.5561 34.9096 33.6914C34.6193 34.5738 34.3279 35.4558 34.0286 36.3351C33.8804 36.7697 33.8713 36.7535 33.4086 36.784C32.4873 36.8445 31.5672 36.9227 30.646 36.9901C29.8322 37.0499 29.0181 37.1046 28.1645 37.1643L28.1641 37.1651ZM36.9542 28.283C36.969 28.2819 36.9941 28.2807 37.0191 28.2784C38.0323 28.1778 39.0489 28.1285 40.064 28.0553C40.5871 28.0175 41.1102 27.9778 41.6337 27.9393C41.7663 27.9297 41.8226 27.8742 41.7576 27.7393C41.7352 27.6931 41.7173 27.6453 41.6938 27.5998C41.4434 27.1105 41.1923 26.6215 40.9416 26.1321C40.2684 24.8178 39.5952 23.5031 38.9209 22.1891C38.8958 22.1406 38.8825 22.0589 38.8187 22.0647C38.7439 22.0712 38.745 22.1583 38.726 22.2169C38.582 22.6546 38.4403 23.0935 38.2956 23.5308C37.7937 25.0444 37.2908 26.5579 36.7893 28.0715C36.7365 28.231 36.7752 28.2819 36.9546 28.2838L36.9542 28.283Z" fill="#1D1D1B"/>
</g>
<defs>
<clipPath id="clip0_110_288">
<rect width="116" height="39" fill="white"/>
</clipPath>
</defs>
</svg>
