<svg width="87" height="36" viewBox="0 0 87 36" fill="none" xmlns="http://www.w3.org/2000/svg">
<path d="M10.0227 5.03417C9.23422 5.80209 8.78672 6.85443 8.78672 8.30496V9.24353H17.1046V13.5524H8.98561V35.5023H4.13412L4.03468 13.5524H0.206055V9.24353H4.03468V8.30496C4.03468 8.30496 3.27464 0.120875 12.4165 0.0924335C14.6113 0.0853231 15.5561 0.334187 17.4952 0.775033V4.54355C17.4952 4.54355 12.1892 2.9366 10.0227 5.04128V5.03417Z" fill="#1D1D1B"/>
<path d="M22.3467 12.7703C24.9536 10.1252 28.1216 8.80268 31.8508 8.80268C35.1538 8.80268 38.0448 9.9048 40.538 12.0948C43.0312 14.2919 44.5229 17.0081 45.0201 20.2433C45.1835 21.0326 45.2688 21.7792 45.2688 22.476C45.2688 23.0733 45.2048 23.635 45.0699 24.1612H23.2915C23.5898 26.3725 24.5345 28.1501 26.1398 29.4869C27.7381 30.8236 29.6488 31.492 31.8579 31.492C33.378 31.492 34.8342 31.1507 36.2406 30.4752C37.6399 29.7997 38.7906 28.8825 39.6785 27.7235L44.0825 28.8611C43.0242 30.9729 41.362 32.6794 39.0819 33.9664C36.8017 35.2534 34.3938 35.9005 31.8579 35.9005C28.0648 35.9005 24.8684 34.5779 22.2828 31.9328C19.6901 29.2878 18.3974 26.1023 18.3974 22.3693C18.3974 18.6364 19.7185 15.4011 22.3609 12.7561L22.3467 12.7703ZM23.2844 20.35H40.2113C39.8845 18.3377 38.9398 16.6455 37.3913 15.2732C35.8428 13.9008 33.9747 13.2182 31.8011 13.2182C29.6275 13.2182 27.6954 13.9008 26.1114 15.2732C24.5274 16.6455 23.5898 18.3377 23.2915 20.35H23.2844Z" fill="#1D1D1B"/>
<path d="M63.5311 12.5428C66.074 9.93324 69.1568 8.62492 72.7866 8.62492C76.6507 8.62492 79.6696 10.1608 81.8431 13.2325V0.846137H86.7941V35.3316H81.8431V31.2218C79.6624 34.2295 76.6436 35.7298 72.7866 35.7298C69.1568 35.7298 66.0598 34.4002 63.5027 31.7409C60.9455 29.0816 59.6669 25.9032 59.6669 22.1987C59.6669 18.4942 60.9526 15.1807 63.5311 12.5356V12.5428ZM66.898 28.5981C68.617 30.3472 70.7266 31.2218 73.2341 31.2218C75.7415 31.2218 77.773 30.333 79.5204 28.5483C81.2678 26.7636 82.1415 24.6518 82.1415 22.2058C82.1415 19.7598 81.2749 17.5983 79.5417 15.8135C77.8085 14.0288 75.706 13.14 73.227 13.14C70.7479 13.14 68.6454 14.0288 66.9122 15.8135C65.179 17.5983 64.3124 19.7314 64.3124 22.2058C64.3124 24.6802 65.1719 26.8489 66.8838 28.5981H66.898Z" fill="#1D1D1B"/>
<path d="M54.9149 0.846137H49.964V35.5307H54.9149V0.846137Z" fill="#1D1D1B"/>
<path d="M36.7023 0.839026H26.8999V4.73553H36.7023V0.839026Z" fill="#F49AEB"/>
</svg>
